<?xml version="1.0" standalone="no"?>
<!DOCTYPE svg PUBLIC "-//W3C//DTD SVG 20010904//EN"
 "http://www.w3.org/TR/2001/REC-SVG-20010904/DTD/svg10.dtd">
<svg version="1.0" xmlns="http://www.w3.org/2000/svg"
 width="2449.000000pt" height="2449.000000pt" viewBox="0 0 2449.000000 2449.000000"
 preserveAspectRatio="xMidYMid meet">
<metadata>
Created by potrace 1.14, written by Peter Selinger 2001-2017
</metadata>
<g transform="translate(0.000000,2449.000000) scale(0.100000,-0.100000)"
fill="#000000" stroke="none">
<path d="M10888 21405 c-2 -1 -82 -5 -178 -9 -184 -8 -246 -12 -320 -20 -25
-3 -81 -8 -125 -11 -44 -3 -87 -8 -95 -10 -8 -2 -48 -7 -88 -10 -40 -4 -83 -8
-95 -11 -12 -2 -69 -10 -127 -19 -113 -15 -170 -24 -204 -31 -11 -2 -48 -9
-81 -14 -33 -5 -71 -12 -85 -15 -14 -3 -41 -8 -60 -11 -19 -3 -82 -17 -140
-29 -58 -13 -116 -26 -130 -29 -14 -2 -54 -12 -90 -21 -36 -9 -74 -18 -85 -20
-25 -6 -213 -56 -315 -84 -76 -21 -109 -31 -305 -94 -194 -63 -514 -180 -636
-234 -43 -20 -79 -35 -89 -38 -3 -1 -31 -13 -64 -28 -32 -15 -60 -27 -62 -27
-5 0 -159 -72 -319 -151 -186 -90 -374 -191 -555 -297 -100 -59 -378 -230
-395 -244 -5 -5 -40 -28 -76 -51 -143 -94 -457 -324 -587 -429 -22 -18 -53
-43 -69 -55 -15 -12 -37 -30 -48 -40 -11 -10 -45 -38 -75 -63 -212 -173 -743
-686 -885 -854 -27 -33 -57 -67 -66 -75 -13 -14 -99 -114 -173 -201 -63 -75
-222 -278 -286 -365 -40 -55 -85 -116 -100 -135 -94 -124 -353 -523 -458 -705
-163 -283 -327 -601 -437 -850 -31 -71 -63 -144 -70 -160 -80 -179 -280 -725
-310 -845 -2 -8 -19 -67 -38 -130 -47 -156 -102 -363 -122 -459 -2 -9 -10 -45
-19 -81 -8 -36 -17 -76 -20 -90 -3 -14 -7 -36 -10 -50 -14 -63 -27 -129 -32
-156 -2 -16 -7 -42 -11 -59 -3 -16 -7 -39 -9 -50 -1 -11 -5 -33 -8 -50 -11
-60 -36 -221 -41 -269 -4 -28 -8 -52 -10 -55 -2 -3 -6 -39 -10 -79 -3 -41 -8
-81 -10 -90 -2 -15 -8 -67 -20 -192 -8 -80 -27 -349 -31 -440 -4 -89 -4 -721
0 -795 8 -148 18 -293 21 -325 2 -19 6 -66 10 -105 3 -38 8 -90 11 -115 2 -25
7 -65 10 -90 6 -62 15 -128 19 -149 2 -10 6 -42 10 -72 3 -30 13 -92 20 -139
8 -47 17 -103 20 -125 3 -22 15 -85 25 -140 11 -55 22 -116 25 -135 3 -19 10
-48 15 -65 24 -81 23 -84 -70 -133 -335 -177 -413 -220 -605 -330 -71 -41
-143 -83 -160 -92 -79 -45 -343 -205 -419 -254 -47 -30 -99 -62 -116 -71 -16
-8 -30 -19 -30 -23 0 -8 208 -92 228 -92 7 0 78 36 156 79 444 246 1090 571
1099 553 2 -4 10 -29 17 -57 41 -164 150 -523 190 -630 10 -27 39 -106 64
-175 40 -113 60 -163 136 -350 12 -30 35 -83 51 -118 16 -35 29 -65 29 -67 0
-13 221 -469 276 -570 71 -129 210 -373 253 -443 26 -42 54 -88 62 -101 8 -14
17 -30 21 -35 4 -6 65 -96 134 -201 133 -200 303 -433 438 -600 44 -55 84
-104 88 -110 5 -5 20 -23 34 -40 14 -16 39 -47 57 -69 38 -45 39 -47 96 -111
138 -155 256 -279 418 -441 l182 -181 -106 -99 c-59 -55 -121 -112 -137 -128
-17 -15 -76 -69 -130 -120 -151 -139 -154 -141 -271 -251 -60 -56 -126 -117
-145 -135 -58 -53 -148 -138 -296 -276 -193 -181 -263 -246 -307 -285 -41 -37
-42 -40 -51 -144 -3 -38 -9 -97 -12 -130 l-6 -59 38 33 c22 19 72 64 112 100
41 36 84 75 96 86 13 11 40 36 62 55 22 19 80 71 129 115 50 44 92 82 95 85 3
3 79 71 170 150 91 80 181 159 200 177 19 17 46 41 60 53 14 12 52 45 85 74
88 78 296 259 329 287 16 13 38 33 50 44 12 11 68 60 124 109 l103 88 32 -28
c17 -16 34 -31 37 -34 3 -3 32 -27 65 -55 33 -27 66 -56 73 -63 8 -7 30 -25
50 -40 21 -15 42 -32 47 -38 18 -19 188 -150 347 -267 178 -130 445 -309 626
-418 67 -41 134 -82 149 -91 16 -10 35 -21 43 -25 8 -4 42 -22 75 -41 265
-150 628 -329 900 -442 55 -23 109 -45 120 -51 198 -90 885 -316 1155 -378
316 -74 435 -100 525 -116 17 -2 41 -7 55 -10 39 -8 261 -45 300 -50 19 -3 70
-10 115 -16 44 -6 94 -13 110 -14 29 -3 89 -10 165 -20 19 -2 71 -7 115 -10
44 -3 91 -8 105 -10 26 -4 213 -15 360 -21 98 -4 635 -4 725 0 98 5 307 17
350 21 22 3 65 7 95 9 74 7 168 17 205 22 17 2 55 6 85 9 30 3 66 8 80 11 14
2 43 6 65 9 36 3 351 55 430 70 31 6 168 34 195 40 8 2 49 11 90 20 234 50
639 163 879 246 80 28 151 52 156 53 6 2 17 6 25 9 8 4 69 27 135 51 128 48
181 69 232 92 17 8 33 14 36 14 2 0 22 8 43 17 22 9 41 17 44 18 5 2 65 28
175 78 249 111 699 350 925 489 58 35 116 71 129 79 191 113 673 457 852 607
13 11 67 55 119 98 52 44 109 91 125 105 170 149 284 256 475 448 230 231 273
276 395 416 39 44 72 82 75 85 3 3 25 30 50 60 25 30 47 57 50 60 39 36 289
364 421 550 166 234 343 515 491 777 92 164 298 571 298 589 0 8 5 14 10 14 6
0 10 6 10 13 0 7 11 35 24 63 13 27 30 65 38 84 9 19 25 57 37 83 12 27 35 83
52 125 17 42 37 91 44 107 128 289 350 1028 431 1430 2 11 6 31 9 45 3 14 7
36 10 50 3 14 7 36 10 50 2 14 7 39 10 55 5 33 12 67 20 105 3 14 8 43 10 65
3 22 9 63 15 90 5 28 11 70 15 95 3 25 7 55 9 67 3 12 8 53 11 90 4 37 8 75
10 83 3 13 7 45 21 175 1 17 6 66 9 110 3 44 8 98 10 120 25 264 25 1159 0
1317 -2 13 -6 64 -10 113 -3 50 -8 106 -10 125 -3 19 -7 58 -10 85 -3 28 -8
66 -10 85 -2 19 -7 60 -10 90 -4 30 -8 62 -10 70 -2 8 -7 38 -10 65 -3 28 -10
77 -16 110 -5 33 -14 85 -19 115 -98 601 -306 1321 -542 1884 l-50 120 23 19
c13 10 44 37 69 59 143 129 217 196 244 221 16 15 77 71 135 125 110 101 701
689 806 802 33 36 99 108 145 160 47 52 96 106 110 121 14 14 43 47 65 74 22
26 49 57 60 70 91 102 302 360 437 538 128 167 136 177 166 220 13 17 50 69
83 115 33 45 110 158 171 250 61 92 128 193 149 225 22 32 39 59 39 62 0 2 22
39 48 82 27 43 60 98 74 123 14 25 55 98 91 162 65 114 227 433 282 553 15 33
35 78 46 100 35 78 149 357 149 366 0 5 5 17 10 27 12 20 69 182 65 182 -2 0
-45 -53 -96 -117 -52 -65 -96 -120 -99 -123 -3 -3 -57 -66 -120 -140 -136
-159 -155 -181 -305 -345 -207 -227 -651 -671 -803 -803 -11 -10 -56 -51 -102
-92 -46 -41 -92 -83 -104 -93 -62 -53 -85 -74 -121 -106 -22 -20 -65 -56 -95
-81 -30 -25 -70 -59 -90 -75 -29 -25 -155 -128 -210 -172 -248 -197 -439 -343
-560 -428 -19 -14 -84 -60 -145 -104 -184 -132 -750 -510 -886 -591 -14 -8
-69 -42 -123 -75 -53 -33 -124 -76 -158 -97 l-62 -36 -49 76 c-28 43 -70 109
-95 147 -100 155 -418 591 -471 647 -9 9 -27 31 -41 49 -34 45 -243 292 -300
354 -264 290 -574 593 -810 793 -14 11 -38 33 -55 47 -251 221 -767 598 -1068
780 -111 67 -285 171 -302 181 -11 6 -45 24 -75 41 -445 248 -961 477 -1458
647 -106 36 -203 68 -215 71 -12 2 -83 23 -157 45 -120 36 -338 95 -387 104
-10 2 -38 9 -63 16 -25 7 -56 14 -70 17 -14 2 -41 8 -60 13 -48 12 -188 41
-224 46 -15 2 -35 6 -45 8 -18 6 -22 7 -206 36 -71 12 -146 23 -165 26 -19 2
-51 6 -70 9 -33 5 -65 9 -150 20 -64 8 -114 14 -185 20 -38 3 -86 8 -105 10
-19 3 -80 7 -135 10 -55 3 -125 7 -155 10 -55 6 -736 15 -742 10z"/>
</g>
</svg>
